# xmcd
#
# Track frame offsets: 
#        180
#        11955
#        23074
#        35560
#        45706
#        61674
#        73147
#        83373
#        101708
#        115926
#        129197
#        144725
#        155508
#        171435
#
# Disc length: 2430 seconds
#
# Revision: 0
# Processed by: cddbd v1.5.2PL0 Copyright (c) Steve Scherf et al.
# Submitted via: ExactAudioCopyFreeDBPlugin 1.0
#
DISCID=ba097c0e
DTITLE=Various Artist - The Sweet Sounds of Muscle Shoals:  Rare Soul
DTITLE=from Quinvy-Broadway Sound Studio
DYEAR=1996
DGENRE=Soul
TTITLE0=Tony Borders - You Better Believe It
TTITLE1=Z.Z. Hill - I Think I'd Do It
TTITLE2=Bill Brandon - Since I Fell for You
TTITLE3=Tony Borders - High on the Hog
TTITLE4=Don Varner - He Kept on Talking
TTITLE5=Z.Z. Hill - Faithful and True
TTITLE6=Tony Borders - Corn Bread Woman
TTITLE7=Bill Brandon - You've Lost That Lovin' Feeling
TTITLE8=Bill Brandon - When You Get What You Want
TTITLE9=Tony Borders - Cheaters Never Win
TTITLE10=Tony Borders - Until It's Time for Me to Got
TTITLE11=Tony Borders - Lonly Weekend
TTITLE12=Bill Brandon - Strangest Feeling
TTITLE13=Don Varner - I'm Still in Love with You
EXTD=
EXTT0=
EXTT1=
EXTT2=
EXTT3=
EXTT4=
EXTT5=
EXTT6=
EXTT7=
EXTT8=
EXTT9=
EXTT10=
EXTT11=
EXTT12=
EXTT13=
PLAYORDER=
